<svg width="17" height="20" viewBox="0 0 17 20" fill="none" xmlns="http://www.w3.org/2000/svg">
<path d="M2.24935 11.5833C2.24935 12.4861 2.43164 13.3411 2.79622 14.1484C3.16081 14.9557 3.68164 15.6632 4.35872 16.2708C4.34136 16.184 4.33268 16.1059 4.33268 16.0365V15.8021C4.33268 15.2465 4.43685 14.7257 4.64518 14.2396C4.85352 13.7535 5.15734 13.3108 5.55664 12.9115L8.49935 10.0208L11.4421 12.9115C11.8414 13.3108 12.1452 13.7535 12.3535 14.2396C12.5618 14.7257 12.666 15.2465 12.666 15.8021V16.0365C12.666 16.1059 12.6573 16.184 12.64 16.2708C13.3171 15.6632 13.8379 14.9557 14.2025 14.1484C14.5671 13.3411 14.7493 12.4861 14.7493 11.5833C14.7493 10.7153 14.5888 9.89497 14.2676 9.1224C13.9464 8.34983 13.482 7.65972 12.8743 7.05208C12.5271 7.27778 12.1625 7.44705 11.7806 7.5599C11.3987 7.67274 11.008 7.72917 10.6087 7.72917C9.53234 7.72917 8.59918 7.37326 7.80924 6.66146C7.01931 5.94965 6.56358 5.07292 6.44206 4.03125C5.76497 4.60417 5.16602 5.19878 4.64518 5.8151C4.12435 6.43142 3.68598 7.05642 3.33008 7.6901C2.97418 8.32378 2.70508 8.97049 2.52279 9.63021C2.34049 10.2899 2.24935 10.941 2.24935 11.5833ZM8.49935 12.9375L7.01497 14.3958C6.824 14.5868 6.67643 14.8038 6.57227 15.0469C6.4681 15.2899 6.41602 15.5417 6.41602 15.8021C6.41602 16.3576 6.62001 16.8351 7.02799 17.2344C7.43598 17.6337 7.92643 17.8333 8.49935 17.8333C9.07227 17.8333 9.56272 17.6337 9.9707 17.2344C10.3787 16.8351 10.5827 16.3576 10.5827 15.8021C10.5827 15.5243 10.5306 15.2682 10.4264 15.0339C10.3223 14.7995 10.1747 14.5868 9.98372 14.3958L8.49935 12.9375ZM8.49935 0.125V3.5625C8.49935 4.15278 8.70334 4.64757 9.11133 5.04687C9.51931 5.44618 10.0184 5.64583 10.6087 5.64583C10.9212 5.64583 11.212 5.58073 11.4811 5.45052C11.7502 5.32031 11.9889 5.125 12.1973 4.86458L12.666 4.29167C13.9507 5.02083 14.9664 6.03646 15.7129 7.33854C16.4594 8.64062 16.8327 10.0556 16.8327 11.5833C16.8327 13.9097 16.0254 15.8802 14.4108 17.4948C12.7962 19.1094 10.8257 19.9167 8.49935 19.9167C6.17296 19.9167 4.20247 19.1094 2.58789 17.4948C0.973307 15.8802 0.166016 13.9097 0.166016 11.5833C0.166016 9.34375 0.916884 7.21701 2.41862 5.20312C3.92036 3.18924 5.94727 1.49653 8.49935 0.125Z" fill="white"/>
</svg>
